# AST/ASF file generated using VICON BodyLanguage
# -----------------------------------------------
:version 1.10
:name VICON
:units
  mass 1.0
  length 0.45
  angle deg
:documentation
   .ast/.asf automatically generated from VICON data using
   VICON BodyBuilder and BodyLanguage model FoxedUp or BRILLIANT.MOD
:root
   order TX TY TZ RX RY RZ
   axis XYZ
   position 0 0 0  
   orientation 0 0 0 
:bonedata
  begin
     id 1 
     name lhipjoint
     direction 0.707368 -0.647095 0.284426 
     length 2.60678 
     axis 0 0 0  XYZ
  end
  begin
     id 2 
     name lfemur
     direction 0.34202 -0.939693 0  
     length 6.63812  
     axis 0 0 20  XYZ
    dof rx ry rz
    limits (-160.0 20.0)
           (-70.0 70.0)
           (-60.0 70.0)
  end
  begin
     id 3 
     name ltibia
     direction 0.34202 -0.939693 0   
     length 7.51178   
     axis 0 0 20   XYZ
    dof rx
    limits (-10.0 170.0)
  end
  begin
     id 4 
     name lfoot
     direction 0.121251 -0.333133 0.935051   
     length 1.83716   
     axis -90 7.62852e-016 20   XYZ
    dof rx rz
    limits (-45.0 90.0)
           (-70.0 20.0)
  end
  begin
     id 5 
     name ltoes
     direction 1.53611e-011 -4.21962e-011 1   
     length 0.916133   
     axis -90 7.62852e-016 20   XYZ
    dof rx
    limits (-90.0 20.0)
  end
  begin
     id 6 
     name rhipjoint
     direction -0.692419 -0.660507 0.290321   
     length 2.55385  
     axis 0 0 0  XYZ 
  end
  begin
     id 7 
     name rfemur
     direction -0.34202 -0.939693 0   
     length 7.29079   
     axis 0 0 -20   XYZ
    dof rx ry rz
    limits (-160.0 20.0)
           (-70.0 70.0)
           (-70.0 60.0)
  end
  begin
     id 8 
     name rtibia
     direction -0.34202 -0.939693 0   
     length 7.47143   
     axis 0 0 -20   XYZ
    dof rx
    limits (-10.0 170.0)
 end
 begin
     id 9 
     name rfoot
     direction -0.119907 -0.329441 0.936532   
     length 1.79439  
     axis -90 -7.62852e-016 -20   XYZ
    dof rx rz
    limits (-45.0 90.0)
           (-20.0 70.0)
  end
  begin
     id 10 
     name rtoes
     direction -1.53571e-011 -4.21961e-011 1   
     length 0.896039   
     axis -90 -7.62852e-016 -20   XYZ
    dof rx
    limits (-90.0 20.0)
  end
  begin
     id 11 
     name lowerback
     direction 0.0367721 0.992912 -0.113016   
     length 1.73542   
     axis 0 0 0   XYZ
    dof rx ry rz
    limits (-20.0 45.0)
           (-30.0 30.0)
           (-30.0 30.0)
  end
  begin
     id 12 
     name upperback
     direction -0.000314626 0.990678 0.136227   
     length 1.7514   
     axis 0 0 0   XYZ
    dof rx ry rz
    limits (-20.0 45.0)
           (-30.0 30.0)
           (-30.0 30.0)
  end
  begin
     id 13 
     name thorax
     direction -0.0226159 0.981151 0.191917   
     length 1.71471   
     axis 0 0 0   XYZ
    dof rx ry rz
    limits (-20.0 45.0)
           (-30.0 30.0)
           (-30.0 30.0)
  end
  begin
     id 14 
     name lowerneck
     direction 0.0219333 0.998071 0.0580739   
     length 1.65882   
     axis 0 0 0   XYZ
    dof rx ry rz
    limits (-20.0 45.0)
           (-30.0 30.0)
           (-30.0 30.0)
  end
  begin
     id 15 
     name upperneck
     direction 0.0384529 0.980058 -0.194957   
     length 1.6612   
     axis 0 0 0   XYZ
    dof rx ry rz
    limits (-20.0 45.0)
           (-30.0 30.0)
           (-30.0 30.0)
  end
  begin
     id 16
     name head
     direction 0.00592123 0.997421 -0.0715234  
     length 1.68077  
     axis 0 0 0   XYZ
    dof rx ry rz
    limits (-20.0 45.0)
           (-30.0 30.0)
           (-30.0 30.0)
  end
  begin
     id 17 
     name lclavicle
     direction 0.904803 0.417826 0.0821728  
     length 3.42227  
     axis 0 0 0   XYZ
    dof ry rz
    limits (-20.0 10.0)
           (0.0 20.0)
  end
  begin
     id 18 
     name lhumerus
     direction 1 -4.48965e-011 -2.68786e-027   
     length 5.11878   
     axis -180 -30 -90   XYZ
    dof rx ry rz
    limits (-60.0 90.0)
           (-90.0 90.0)
           (-90.0 90.0)
  end
  begin
     id 19
     name lradius
     direction 1 -4.48965e-011 2.61168e-028   
     length 3.59971   
     axis -180 -30 -90   XYZ
    dof rx
    limits (-10.0 170.0)
  end
  begin
     id 20
     name lwrist
     direction 1 -4.48965e-011 1.58672e-027   
     length 1.79985   
     axis -1.65735e-015 90 90   XYZ
    dof ry
    limits (-180.0 0.0)
 end
  begin
     id 21 
     name lhand
     direction 1 -4.48942e-011 3.17344e-027   
     length 0.62877   
     axis -2.02492e-015 90 90   XYZ
    dof rx rz
    limits (-90.0 90.0)
           (-45.0 45.0)
  end
  begin
     id 22 
     name lfingers
     direction 1 -4.49011e-011 6.34687e-027   
     length 0.506931   
     axis -4.04985e-015 90 90   XYZ
    dof rx
    limits (0.0 90.0)
  end
  begin
     id 23
     name lthumb
     direction 0.707107 -6.34982e-011 0.707107   
     length 0.727854   
     axis -90 45 2.85299e-015   XYZ
    dof rx rz
    limits (-45.0 45.0)
           (-45.0 45.0)
  end
  begin
     id 24 
     name rclavicle
     direction -0.945647 0.32488 0.0143075   
     length 3.52737  
     axis 0 0 0   XYZ 
    dof ry rz
    limits (-10.0 20.0)
           (-20.0 0.0)
  end
  begin
     id 25 
     name rhumerus
     direction -1 -4.48962e-011 1.92182e-027  
     length 5.4902   
     axis -180 30 90   XYZ
    dof rx ry rz
    limits (-90.0 60.0)
           (-90.0 90.0)
           (-90.0 90.0)
  end
  begin
     id 26 
     name rradius
     direction -1 -4.48967e-011 -5.97193e-028   
     length 3.20659   
     axis -180 30 90   XYZ
    dof rx
    limits (-10.0 170.0)
  end
  begin
     id 27 
     name rwrist
     direction -1 -4.48964e-011 1.58672e-027   
     length 1.6033   
     axis -1.65735e-015 -90 -90   XYZ
    dof ry
    limits (-180.0 0.0)
  end
  begin
     id 28
     name rhand
     direction -1 -4.49006e-011 3.17344e-027   
     length 0.691885   
     axis -2.02492e-015 -90 -90   XYZ
    dof rx rz
    limits (-90.0 90.0)
           (-45.0 45.0)
  end
  begin
     id 29
     name rfingers
     direction -1 -4.48908e-011 6.34687e-027   
     length 0.557815   
     axis -4.04985e-015 -90 -90   XYZ
    dof rx
    limits (0.0 90.0)
  end
  begin
     id 30
     name rthumb
     direction -0.707107 -6.34999e-011 0.707107   
     length 0.800915   
     axis -90 -45 -2.85299e-015   XYZ
    dof rx rz
    limits (-45.0 45.0)
           (-45.0 45.0)
  end
:hierarchy
  begin
    root lhipjoint rhipjoint lowerback
    lhipjoint lfemur
    lfemur ltibia
    ltibia lfoot
    lfoot ltoes
    rhipjoint rfemur
    rfemur rtibia
    rtibia rfoot
    rfoot rtoes
    lowerback upperback
    upperback thorax
    thorax lowerneck lclavicle rclavicle
    lowerneck upperneck
    upperneck head
    lclavicle lhumerus
    lhumerus lradius
    lradius lwrist
    lwrist lhand lthumb
    lhand lfingers
    rclavicle rhumerus
    rhumerus rradius
    rradius rwrist
    rwrist rhand rthumb
    rhand rfingers
  end

#!OML:ASF I:\Actors\actors\Patient Classification 1\Patient 1\Session 1\Subject1.ASF
:FULLY-SPECIFIED
:DEGREES
215
root 0.0111176 17.7219 8.55199 9.03342 8.11599 -9.50095
lowerback 10.7845 0.711302 7.33598
upperback -11.6539 2.51401 0.0365446
thorax -19.4326 0.112822 -4.74985
lowerneck -11.765 -6.40393 -4.15198
upperneck 25.8234 -10.762 9.30887
head 11.0342 -4.27158 2.63036
rclavicle -1.09332e-014 -1.43125e-014
rhumerus 10.7044 -19.2964 14.0193
rradius 33.6008
rwrist 19.1676
rhand 62.0249 -49.0086
rfingers 7.12502
rthumb 74.9152 -9.24854
lclavicle -1.09332e-014 -1.43125e-014
lhumerus 23.7059 14.8869 -13.4081
lradius 38.0784
lwrist 20.2394
lhand 54.5483 7.97284
lfingers 7.12502
lthumb 72.6 -7.09762
rfemur -1.50011 25.548 26.1926
rtibia 1.04768
rfoot -16.2739 -32.0228
rtoes 9.69923
lfemur 1.61484 -47.7917 -7.01861
ltibia -5.15428
lfoot -14.0029 52.007
ltoes 4.24012
216
root 0.00682398 17.7245 8.56273 9.0446 8.2107 -9.5564
lowerback 10.8855 0.697551 7.39667
upperback -11.6695 2.51339 0.0073391
thorax -19.5223 0.0955247 -4.82289
lowerneck -11.8948 -6.40654 -4.0996
upperneck 25.9342 -10.7926 9.32252
head 11.1027 -4.27029 2.61957
rclavicle 3.1408e-014 1.90833e-014
rhumerus 11.1957 -20.4049 13.9815
rradius 33.8145
rwrist 19.983
rhand 61.1849 -49.4671
rfingers 7.12502
rthumb 74.816 -12.7912
lclavicle 3.1408e-014 1.90833e-014
lhumerus 24.3886 15.9835 -13.3648
lradius 37.8821
lwrist 18.8609
lhand 54.1555 7.5928
lfingers 7.12502
lthumb 72.4008 -6.40378
rfemur -1.43939 25.6278 26.3095
rtibia 1.01284
rfoot -16.4119 -32.113
rtoes 9.94009
lfemur 1.61378 -47.8009 -6.90323
ltibia -5.21565
lfoot -13.7177 51.9858
ltoes 3.72743
217
root 0.00305277 17.7269 8.57348 9.06809 8.25143 -9.59951
lowerback 10.9776 0.719399 7.43306
upperback -11.6748 2.55692 -0.015172
thorax -19.5854 0.103681 -4.88552
lowerneck -12.0528 -6.51787 -4.45378
upperneck 26.0022 -10.9387 9.53378
head 11.2081 -4.33898 2.73035
rclavicle 3.55825e-014 2.38542e-015
rhumerus 11.4562 -20.9117 14.3223
rradius 34.1448
rwrist 20.0844
rhand 59.9296 -49.5606
rfingers 7.12502
rthumb 74.5853 -17.397
lclavicle 3.55825e-014 2.38542e-015
lhumerus 25.1316 17.179 -13.1783
lradius 37.6669
lwrist 17.4295
lhand 54.459 7.81112
lfingers 7.12502
lthumb 72.5553 -7.01298
rfemur -1.40869 25.6894 26.3882
rtibia 0.989706
rfoot -16.5302 -32.1489
rtoes 10.4363
lfemur 1.63686 -47.854 -6.83405
ltibia -5.26014
lfoot -13.6321 52.0387
ltoes 3.61953
218
root 0.000877609 17.7298 8.58338 9.13399 8.28108 -9.64297
lowerback 11.0658 0.726248 7.44434
upperback -11.7058 2.58033 -0.0107689
thorax -19.6857 0.106888 -4.89741
lowerneck -12.397 -6.63285 -5.52407
upperneck 26.2939 -11.1175 10.3423
head 11.5277 -4.40948 3.17589
rclavicle -1.41137e-014 -3.97569e-015
rhumerus 11.6999 -20.8476 14.9024
rradius 34.4741
rwrist 20.0864
rhand 58.6336 -49.5212
rfingers 7.12502
rthumb 74.2478 -21.8459
lclavicle -1.41137e-014 -3.97569e-015
lhumerus 25.9253 18.6217 -12.7014
lradius 37.3869
lwrist 15.8711
lhand 55.146 8.49108
lfingers 7.12502
lthumb 72.8906 -8.26099
rfemur -1.45292 25.7163 26.43
rtibia 0.975138
rfoot -16.577 -32.1889
rtoes 10.7896
lfemur 1.58227 -47.9683 -6.72926
ltibia -5.26176
lfoot -13.6598 52.1625
ltoes 3.64478
219
root -0.00107989 17.7326 8.59419 9.21895 8.34233 -9.62409
lowerback 11.1404 0.71613 7.39658
upperback -11.7387 2.56524 -0.0154266
thorax -19.7849 0.100361 -4.87625
lowerneck -12.2744 -6.4993 -4.12065
upperneck 26.0757 -10.864 9.08427
head 11.2232 -4.31436 2.5155
rclavicle -5.56597e-015 -5.56597e-015
rhumerus 12.0298 -21.5705 15.0251
rradius 35.0901
rwrist 21.3003
rhand 58.09 -49.5687
rfingers 7.12502
rthumb 74.0777 -23.7134
lclavicle -5.56597e-015 -5.56597e-015
lhumerus 26.7581 20.2337 -12.0482
lradius 37.1025
lwrist 14.3658
lhand 55.6019 8.84578
lfingers 7.12502
lthumb 73.1017 -9.22756
rfemur -1.48935 25.7351 26.4048
rtibia 0.924798
rfoot -16.5801 -32.2774
rtoes 10.6796
lfemur 1.5225 -48.2628 -6.70185
ltibia -5.23178
lfoot -13.9602 52.3974
ltoes 3.95365
220
root -0.00410259 17.7349 8.60662 9.32019 8.42482 -9.58722
lowerback 11.1652 0.711597 7.34096
upperback -11.7673 2.55006 -0.0269332
thorax -19.8435 0.0966367 -4.8565
lowerneck -12.3332 -6.55023 -4.29732
upperneck 26.0402 -10.9094 9.14766
head 11.2401 -4.34408 2.55902
rclavicle -4.17448e-015 -1.74931e-014
rhumerus 12.3206 -22.6193 15.1274
rradius 35.7472
rwrist 22.5009
rhand 57.7688 -48.991
rfingers 7.12502
rthumb 73.9696 -24.192
lclavicle -4.17448e-015 -1.74931e-014
lhumerus 27.5697 21.7865 -11.4423
lradius 36.8693
lwrist 13.0631
lhand 55.8095 8.71962
lfingers 7.12502
lthumb 73.1948 -9.9665
rfemur -1.5219 25.7616 26.3638
rtibia 0.867809
rfoot -16.596 -32.381
rtoes 10.4089
lfemur 1.47532 -48.7302 -6.69729
ltibia -5.20061
lfoot -14.462 52.7576
ltoes 4.55893
221
root -0.00719755 17.7363 8.61908 9.42182 8.52654 -9.60308
lowerback 11.0485 0.652386 7.22466
upperback -11.7047 2.44385 0.0643683
thorax -19.698 0.0854577 -4.6483
lowerneck -12.4841 -6.46279 -4.23349
upperneck 25.9603 -10.7575 9.05078
head 11.2167 -4.27754 2.53002
rclavicle -1.13307e-014 4.77083e-015
rhumerus 12.5435 -23.7752 15.3353
rradius 36.7078
rwrist 22.711
rhand 57.2562 -48.7223
rfingers 7.12502
rthumb 73.7856 -25.5788
lclavicle -1.13307e-014 4.77083e-015
lhumerus 28.1127 23.4596 -10.9499
lradius 36.6599
lwrist 11.7337
lhand 55.935 8.41912
lfingers 7.12502
lthumb 73.25 -10.6406
rfemur -1.55444 25.7869 26.3793
rtibia 0.793482
rfoot -16.6606 -32.4807
rtoes 10.5585
lfemur 1.40054 -49.0965 -6.59609
ltibia -5.20337
lfoot -14.7965 53.0284
ltoes 4.93599
222
root -0.00928012 17.7364 8.63151 9.52 8.61923 -9.63786
lowerback 10.6595 0.537054 6.86705
upperback -11.4404 2.20856 0.371401
thorax -19.1201 0.0977713 -4.0047
lowerneck -12.8544 -6.29327 -4.12638
upperneck 25.7543 -10.4187 8.74132
head 11.1577 -4.14363 2.43619
rclavicle -1.59028e-015 1.51076e-014
rhumerus 13.6097 -26.0003 14.9805
rradius 36.8317
rwrist 22.8559
rhand 56.3338 -48.3248
rfingers 7.12502
rthumb 73.4207 -28.0608
lclavicle -1.59028e-015 1.51076e-014
lhumerus 28.2522 25.491 -10.4536
lradius 36.5061
lwrist 10.2523
lhand 55.8507 8.50296
lfingers 7.12502
lthumb 73.213 -10.3058
rfemur -1.58775 25.7783 26.4059
rtibia 0.706948
rfoot -16.7205 -32.5109
rtoes 10.9711
lfemur 1.33011 -49.4016 -6.47602
ltibia -5.21716
lfoot -15.0136 53.2547
ltoes 5.06561
223
root -0.0108035 17.7367 8.64352 9.63384 8.68521 -9.64525
lowerback 11.1432 0.581642 7.19051
upperback -11.7975 2.36319 0.119346
thorax -19.9055 0.0483517 -4.54799
lowerneck -12.696 -6.39287 -3.93306
upperneck 26.1222 -10.6065 8.58055
head 11.2589 -4.22245 2.326
rclavicle 7.15625e-015 -1.59028e-014
rhumerus 13.7275 -26.9396 14.7917
rradius 37.129
rwrist 22.8047
rhand 55.6509 -47.8039
rfingers 7.12502
rthumb 73.1239 -29.5865
lclavicle 7.15625e-015 -1.59028e-014
lhumerus 29.7645 26.6326 -9.48601
lradius 36.4601
lwrist 8.69945
lhand 55.5954 8.67243
lfingers 7.12502
lthumb 73.0988 -9.38185
rfemur -1.66731 25.7414 26.3806
rtibia 0.679733
rfoot -16.7476 -32.4695
rtoes 11.1698
lfemur 1.25546 -49.7841 -6.39479
ltibia -5.20279
lfoot -15.3129 53.5586
ltoes 5.25862
224
root -0.0125025 17.7375 8.65399 9.76946 8.75739 -9.64136
lowerback 11.3578 0.593155 7.29779
upperback -11.9551 2.41325 0.00345222
thorax -20.2592 0.0200135 -4.77156
lowerneck -12.8233 -6.45039 -3.81258
upperneck 26.3886 -10.7094 8.45083
head 11.3787 -4.25952 2.24176
rclavicle -1.11319e-014 -7.15625e-015
rhumerus 14.4104 -29.017 13.8945
rradius 37.2801
rwrist 23.648
rhand 54.6323 -46.5898
rfingers 7.12502
rthumb 72.6418 -31.2865
lclavicle -1.11319e-014 -7.15625e-015
lhumerus 31.1216 28.3593 -8.23787
lradius 36.4152
lwrist 6.88026
lhand 55.4369 8.05898
lfingers 7.12502
lthumb 73.0264 -9.53234
rfemur -1.76878 25.8418 26.3418
rtibia 0.660372
rfoot -16.8477 -32.5616
rtoes 11.2828
lfemur 1.12194 -50.228 -6.29017
ltibia -5.14738
lfoot -15.7605 53.911
ltoes 5.63999
225
root -0.0152399 17.7384 8.66315 9.92797 8.83981 -9.6768
lowerback 11.4165 0.593599 7.32903
upperback -12.0169 2.42034 -0.0558341
thorax -20.382 0.00386397 -4.86572
lowerneck -12.9325 -6.4922 -3.82186
upperneck 26.425 -10.8101 8.58453
head 11.4326 -4.28505 2.27403
rclavicle -3.77691e-014 -7.95139e-016
rhumerus 15.4691 -31.8074 12.2724
rradius 37.4949
rwrist 25.0908
rhand 52.8243 -45.1908
rfingers 7.12502
rthumb 71.6807 -34.6497
lclavicle -3.77691e-014 -7.95139e-016
lhumerus 32.5064 30.4105 -6.74791
lradius 36.4221
lwrist 5.24816
lhand 55.078 7.20751
lfingers 7.12502
lthumb 72.8583 -9.35047
rfemur -1.92216 25.9285 26.3347
rtibia 0.644938
rfoot -16.8885 -32.6678
rtoes 11.1969
lfemur 0.88272 -50.5083 -6.04112
ltibia -5.11116
lfoot -16.0696 54.1392
ltoes 5.91844
226
root -0.0194558 17.7399 8.67167 10.0643 8.89597 -9.71981
lowerback 11.3699 0.614182 7.21088
upperback -11.9468 2.42549 0.00462742
thorax -20.2548 0.0389225 -4.72525
lowerneck -13.135 -6.53508 -3.94535
upperneck 26.2791 -10.8571 8.70277
head 11.4368 -4.30213 2.32299
rclavicle -2.36554e-014 1.03368e-014
rhumerus 15.4701 -33.6068 12.3624
rradius 38.3631
rwrist 24.3896
rhand 50.4312 -44.3738
rfingers 7.12502
rthumb 70.2313 -39.3565
lclavicle -2.36554e-014 1.03368e-014
lhumerus 34.0006 32.8646 -4.75118
lradius 36.3854
lwrist 3.71363
lhand 54.027 6.58308
lfingers 7.12502
lthumb 72.3343 -7.06759
rfemur -2.08019 25.8837 26.3398
rtibia 0.653976
rfoot -16.76 -32.6631
rtoes 10.7689
lfemur 0.663631 -50.5097 -5.76651
ltibia -5.16154
lfoot -15.9306 54.1533
ltoes 5.75848
227
root -0.0230984 17.7421 8.6804 10.1614 8.97764 -9.74832
lowerback 11.1035 0.56519 6.80924
upperback -11.6429 2.28221 0.31928
thorax -19.6896 0.103154 -4.07183
lowerneck -13.634 -6.46846 -4.0961
upperneck 25.9503 -10.6481 8.60327
head 11.3963 -4.22794 2.32478
rclavicle 1.07344e-014 2.94201e-014
rhumerus 16.6746 -36.3518 11.2333
rradius 38.9294
rwrist 24.5492
rhand 47.4274 -43.4732
rfingers 7.12502
rthumb 68.1844 -44.2562
lclavicle 1.07344e-014 2.94201e-014
lhumerus 35.2422 35.9025 -2.40159
lradius 36.3932
lwrist 2.14701
lhand 52.6497 5.79466
lfingers 7.12502
lthumb 71.5814 -4.31395
rfemur -2.13577 25.9132 26.3704
rtibia 0.612556
rfoot -16.6972 -32.7474
rtoes 10.5695
lfemur 0.528867 -50.5995 -5.58653
ltibia -5.20412
lfoot -15.714 54.2138
ltoes 5.42424
228
root -0.0258421 17.7438 8.68842 10.2599 9.14879 -9.81581
lowerback 11.6879 0.585613 7.22269
upperback -11.9476 2.43033 0.0681139
thorax -20.4826 0.0344889 -4.67048
lowerneck -13.5707 -6.58117 -4.07398
upperneck 26.1195 -10.8737 8.7269
head 11.4741 -4.30943 2.33545
rclavicle -3.24019e-014 2.06736e-014
rhumerus 15.4546 -36.2045 12.5227
rradius 40.0093
rwrist 22.7603
rhand 44.8563 -42.6557
rfingers 7.12502
rthumb 66.2771 -47.5519
lclavicle -3.24019e-014 2.06736e-014
lhumerus 37.6426 37.7453 0.363959
lradius 36.6969
lwrist 1.27302
lhand 51.0999 5.24295
lfingers 7.12502
lthumb 70.6545 -1.23213
rfemur -2.16655 25.9707 26.455
rtibia 0.533068
rfoot -16.7617 -32.9141
rtoes 10.7855
lfemur 0.284341 -50.7016 -5.28994
ltibia -5.20283
lfoot -15.4853 54.25
ltoes 5.0394
229
root -0.0287183 17.744 8.6949 10.3819 9.33781 -9.85886
lowerback 11.8374 0.532283 7.26332
upperback -11.9407 2.38432 0.0979412
thorax -20.5871 0.00622631 -4.65053
lowerneck -13.9147 -6.56895 -4.03918
upperneck 26.1393 -10.8378 8.64643
head 11.5406 -4.28681 2.29523
rclavicle -1.61016e-014 8.74653e-015
rhumerus 15.1542 -37.1417 12.9633
rradius 40.9377
rwrist 22.1565
rhand 42.5059 -41.2288
rfingers 7.12502
rthumb 64.437 -49.3159
lclavicle -1.61016e-014 8.74653e-015
lhumerus 39.3517 40.0079 2.86711
lradius 37.2109
lwrist 1.00847
lhand 49.0109 5.24505
lfingers 7.12502
lthumb 69.2912 3.11649
rfemur -2.24607 25.9755 26.4868
rtibia 0.460257
rfoot -16.8167 -33.059
rtoes 10.9498
lfemur -0.0595377 -50.692 -4.93953
ltibia -5.19145
lfoot -15.2975 54.156
ltoes 4.83595
